<?xml version="1.0" standalone="no"?>
<!DOCTYPE svg PUBLIC "-//W3C//DTD SVG 1.1//EN" "http://www.w3.org/Graphics/SVG/1.1/DTD/svg11.dtd">
<svg xmlns="http://www.w3.org/2000/svg" width="195" height="48" viewBox="0 0 195 48" fill="none">
<g clip-path="url(#clip0)">
<path d="M4.19629e-06 12C5.35507e-06 5.37258 5.37259 -1.15877e-06 12 0L36 4.19629e-06C42.6274 5.35507e-06 48 5.37259 48 12L48 36C48 42.6274 42.6274 48 36 48L12 48C5.37258 48 -1.15877e-06 42.6274 0 36L4.19629e-06 12Z" fill="url(#paint0_linear)"/>
<path opacity="0.75" d="M16.5 17.0941C16.5 17.4383 16.7696 17.7644 17.1863 17.9094C17.6275 18.0543 18.1177 18.0181 18.4853 17.8007L18.5098 17.7825L24 14.3586L29.4902 17.7825L29.5147 17.8007C29.7353 17.9275 30.0049 17.9999 30.2745 17.9999C30.4461 17.9999 30.6422 17.9637 30.8137 17.8912C31.2304 17.7463 31.5 17.4202 31.5 17.076L31.5 4.44922L31.5 4.44409L31.5 -5.14984e-05L16.5 -5.47171e-05L16.5 17.0941Z" fill="white"/>
<path opacity="0.5" d="M16.5 23.0941C16.5 23.4383 16.7696 23.7644 17.1863 23.9094C17.6275 24.0543 18.1177 24.0181 18.4853 23.8007L18.5098 23.7825L24 20.3586L29.4902 23.7825L29.5147 23.8007C29.7353 23.9275 30.0049 23.9999 30.2745 23.9999C30.4461 23.9999 30.6422 23.9637 30.8137 23.8912C31.2304 23.7463 31.5 23.4202 31.5 23.076L31.5 10.4492L31.5 10.4441L31.5 -3.24249e-05L16.5 -3.37363e-05L16.5 23.0941Z" fill="white"/>
<path opacity="0.25" d="M16.5 29.0941C16.5 29.4383 16.7696 29.7644 17.1863 29.9094C17.6275 30.0543 18.1177 30.0181 18.4853 29.8007L18.5098 29.7825L24 26.3586L29.4902 29.7825L29.5147 29.8007C29.7353 29.9275 30.0049 29.9999 30.2745 29.9999C30.4461 29.9999 30.6422 29.9637 30.8137 29.8912C31.2304 29.7463 31.5 29.4202 31.5 29.076L31.5 16.4492C31.5 16.4475 31.5 16.4458 31.5 16.4441L31.5 -5.72205e-05L16.5 -5.85318e-05L16.5 29.0941Z" fill="white"/>
<path d="M71.2594 10.861L77.0822 29.1437L82.887 10.861H91.1644V37.139H84.8578V31.0027L85.467 18.4412L79.1604 37.139H75.0039L68.6794 18.4231L69.2886 31.0027V37.139H63V10.861H71.2594Z" fill="#151529"/>
<path d="M112.151 32.2299H103.534L102.029 37.139H95.3102L104.877 10.861H110.79L120.429 37.139H113.674L112.151 32.2299ZM105.039 27.3389H110.647L107.834 18.2246L105.039 27.3389Z" fill="#151529"/>
<path d="M133.873 27.8623H130.469V37.139H124.18V10.861H134.446C137.54 10.861 139.959 11.5528 141.703 12.9365C143.446 14.3202 144.318 16.2754 144.318 18.8021C144.318 20.631 143.948 22.1471 143.208 23.3503C142.479 24.5535 141.332 25.5281 139.768 26.2741L145.214 36.8683V37.139H138.478L133.873 27.8623ZM130.469 22.9713H134.446C135.641 22.9713 136.537 22.6584 137.134 22.0328C137.743 21.3951 138.048 20.5107 138.048 19.3797C138.048 18.2487 137.743 17.3643 137.134 16.7266C136.525 16.0769 135.629 15.752 134.446 15.752H130.469V22.9713Z" fill="#151529"/>
<path d="M158.82 27.3569L156.24 30.2086V37.139H149.951V10.861H156.24V22.4479L158.426 19.109L164.051 10.861H171.827L163.012 22.484L171.827 37.139H164.374L158.82 27.3569Z" fill="#151529"/>
<path d="M188.711 30.1544C188.711 29.2279 188.383 28.506 187.726 27.9886C187.081 27.4713 185.94 26.9358 184.304 26.3823C182.668 25.8289 181.33 25.2934 180.291 24.7761C176.91 23.1036 175.22 20.8055 175.22 17.8817C175.22 16.4258 175.638 15.1444 176.474 14.0374C177.323 12.9184 178.517 12.0521 180.058 11.4385C181.599 10.8128 183.33 10.5 185.253 10.5C187.129 10.5 188.807 10.8369 190.288 11.5107C191.781 12.1845 192.94 13.1471 193.764 14.3984C194.588 15.6377 195 17.0575 195 18.6578H188.729C188.729 17.5869 188.401 16.7567 187.744 16.1671C187.099 15.5775 186.221 15.2828 185.11 15.2828C183.987 15.2828 183.098 15.5354 182.441 16.0408C181.796 16.5341 181.473 17.1658 181.473 17.9358C181.473 18.6096 181.831 19.2233 182.548 19.7767C183.265 20.3182 184.525 20.8837 186.328 21.4733C188.132 22.0508 189.613 22.6765 190.772 23.3503C193.591 24.9866 195 27.2426 195 30.1183C195 32.4164 194.14 34.2213 192.42 35.5327C190.7 36.8442 188.341 37.5 185.343 37.5C183.229 37.5 181.312 37.121 179.592 36.363C177.884 35.5929 176.594 34.5461 175.722 33.2226C174.862 31.887 174.432 30.3529 174.432 28.6203H180.739C180.739 30.0281 181.097 31.0688 181.814 31.7426C182.542 32.4044 183.719 32.7353 185.343 32.7353C186.382 32.7353 187.2 32.5127 187.798 32.0675C188.407 31.6103 188.711 30.9726 188.711 30.1544Z" fill="#151529"/>
</g>
<defs>
<linearGradient id="paint0_linear" x1="24" y1="4.19629e-06" x2="24" y2="48" gradientUnits="userSpaceOnUse">
<stop stop-color="#FF6300"/>
<stop offset="0.963542" stop-color="#FF8A40"/>
</linearGradient>
<clipPath id="clip0">
<rect width="195" height="48" fill="white"/>
</clipPath>
</defs>
</svg>